<?xml version="1.0" encoding="UTF-8"?>
<svg version="1.1" xmlns="http://www.w3.org/2000/svg" width="790" height="316">
<path d="M0 0 C4.52991451 0.89026512 7.40043564 3.48904254 10.875 6.375 C12.22605913 7.47717982 13.57763305 8.57872888 14.9296875 9.6796875 C15.6112793 10.2375293 16.29287109 10.79537109 16.99511719 11.37011719 C19.96648565 13.78571093 22.98132609 16.1439934 26 18.5 C30.88142339 22.32075479 35.72978309 26.18035976 40.5625 30.0625 C45.66300021 34.15872277 50.81357728 38.17457423 56.01586914 42.14086914 C60.41286431 45.51067274 64.71142819 48.99366858 69 52.5 C74.85543803 57.28638385 80.78148027 61.95466866 86.79296875 66.54296875 C91.97850118 70.5034969 97.09156449 74.55708191 102.21630859 78.59570312 C104.02411146 80.01898291 105.8339765 81.43959792 107.64453125 82.859375 C108.54220215 83.56380737 108.54220215 83.56380737 109.45800781 84.2824707 C110.64003848 85.2092536 111.82296267 86.13489817 113.00683594 87.05932617 C115.70483438 89.17112035 118.36647708 91.30627354 120.99609375 93.50390625 C121.88425781 94.24511719 122.77242188 94.98632812 123.6875 95.75 C124.45449219 96.40484375 125.22148437 97.0596875 126.01171875 97.734375 C126.66785156 98.15203125 127.32398438 98.5696875 128 99 C131.45873684 97.84708772 131.73195658 96.86989535 133.58984375 93.9453125 C139.45136306 85.8593385 147.25569725 78.43031216 157.34765625 76.56640625 C163.71705193 76.20587442 168.74162709 78.26328778 173.5859375 82.33203125 C185.19584935 94.46408199 189.67681425 114.05580418 193 130 C193.23485107 129.38519775 193.46970215 128.77039551 193.71166992 128.13696289 C199.0128707 114.27355429 204.37731701 100.43636009 209.8125 86.625 C210.08436127 85.93302521 210.35622253 85.24105042 210.63632202 84.52810669 C211.42935945 82.51038387 212.22391706 80.49327058 213.01953125 78.4765625 C213.27184509 77.83665878 213.52415894 77.19675507 213.78411865 76.53746033 C215.76717771 71.5325375 217.8534255 66.57590238 219.99560547 61.63720703 C221.05068495 58.86691812 221.6955697 56.14607249 222.3125 53.25 C223.9702983 48.40304734 226.49606052 46.73380429 230.84643555 44.44042969 C235.14578497 42.37340745 239.46905489 40.51031504 244 39 C244.33 39.66 244.66 40.32 245 41 C244.13891602 43.5559082 244.13891602 43.5559082 242.75390625 46.80078125 C242.25020508 47.99517822 241.74650391 49.1895752 241.22753906 50.42016602 C240.8200946 51.37235519 240.8200946 51.37235519 240.40441895 52.34378052 C238.98861101 55.65446582 237.59847425 58.97589249 236.20703125 62.296875 C235.92866425 62.95982071 235.65029724 63.62276642 235.36349487 64.30580139 C233.04379598 69.84876146 230.85866991 75.4357664 228.75 81.0625 C226.2980345 87.59190533 223.79247784 94.09249239 221.1875 100.5625 C217.95664661 108.58741928 214.78089922 116.63280948 211.625 124.6875 C206.79539293 137.00789176 201.90111161 149.30151613 196.97045898 161.58178711 C195.97842026 164.05377291 194.98881437 166.52672288 194 169 C190.45493808 167.37940026 187.40978743 165.27370948 184.25 163 C183.26515625 162.29875 182.2803125 161.5975 181.265625 160.875 C180.14414062 159.946875 180.14414062 159.946875 179 159 C179 158.34 179 157.68 179 157 C178.1184021 156.5824646 178.1184021 156.5824646 177.21899414 156.15649414 C175.13835722 155.07210894 173.36902707 153.90229136 171.49609375 152.49609375 C170.84334473 152.0072168 170.1905957 151.51833984 169.51806641 151.01464844 C168.83147949 150.49418945 168.14489258 149.97373047 167.4375 149.4375 C166.72513184 148.9002832 166.01276367 148.36306641 165.27880859 147.80957031 C159.39511915 143.34937552 153.68191756 138.71440838 148 134 C142.45145169 129.48259784 136.87446738 125.086586 131 121 C130.74476563 121.55429688 130.48953125 122.10859375 130.2265625 122.6796875 C121.28144753 139.60133811 105.59906395 158.07218161 87.375 164.875 C78.93966366 167.34207735 72.68381013 165.94010072 65 162 C34.6636681 143.72041539 24.03192007 96.09592094 15.4453125 64.30859375 C14.29690409 60.06756789 13.102453 55.84376561 11.875 51.625 C6.98582114 34.62445277 3.42518873 17.3445727 0 0 Z M24 36 C24.55643534 44.82347475 27.04711367 53.05759119 29.5 61.5 C29.72242371 62.272229 29.94484741 63.04445801 30.17401123 63.84008789 C34.20028737 77.78325958 38.73976513 91.46916953 44 105 C44.33209473 105.87027832 44.66418945 106.74055664 45.00634766 107.63720703 C51.25388689 123.88826508 58.78019351 138.79400493 72.4375 150 C76.40444181 151.54807485 79.81294658 151.83331243 84 151 C87.34199589 149.39992727 90.12236266 147.31951906 93 145 C94.05574219 144.17048828 94.05574219 144.17048828 95.1328125 143.32421875 C99.29614916 139.88115516 102.58512374 136.22475108 105.67578125 131.796875 C106.99242063 130.01028469 108.42517708 128.55854568 110 127 C114.10175905 121.94564664 117.64985963 116.57368486 121 111 C120.21625 110.505 119.4325 110.01 118.625 109.5 C114.86947193 106.99340336 111.3998265 104.16490465 107.890625 101.328125 C104.6966758 98.75570105 101.47706892 96.21814029 98.25 93.6875 C97.65767578 93.2227124 97.06535156 92.7579248 96.45507812 92.27905273 C95.24164157 91.32701445 94.02809923 90.37511098 92.81445312 89.42333984 C89.29437122 86.66202694 85.77733634 83.89683476 82.25976562 81.13232422 C79.29400882 78.80173089 76.32745152 76.47216987 73.359375 74.14453125 C65.80179993 68.21588425 58.27301677 62.25394084 50.796875 56.22265625 C45.04912869 51.599044 39.24953479 47.04236026 33.4375 42.5 C32.62667969 41.86368652 31.81585938 41.22737305 30.98046875 40.57177734 C29.84351563 39.68546631 29.84351563 39.68546631 28.68359375 38.78125 C27.99837646 38.24564453 27.31315918 37.71003906 26.60717773 37.15820312 C25.1949562 35.90255853 25.1949562 35.90255853 24 36 Z M150 97 C143.94342089 102.80876885 143.94342089 102.80876885 140 110 C140.763125 110.474375 141.52625 110.94875 142.3125 111.4375 C146.41607271 114.17001921 150.13427262 117.35737872 153.9296875 120.49609375 C161.77184733 126.8915447 169.88665494 132.95476251 178 139 C178.9995077 135.87807546 178.96770265 133.91897156 178.109375 130.76953125 C177.89410156 129.96580078 177.67882812 129.16207031 177.45703125 128.33398438 C177.10705078 127.08584961 177.10705078 127.08584961 176.75 125.8125 C176.42322266 124.59336914 176.42322266 124.59336914 176.08984375 123.34960938 C173.9688452 115.55400944 171.68123483 107.93456842 168.0625 100.6875 C167.57910156 99.70136719 167.09570312 98.71523437 166.59765625 97.69921875 C164.9780034 94.96283703 163.45193511 93.02008744 161 91 C156.21632576 91 153.50255191 93.93149927 150 97 Z " fill="#E4B917" transform="translate(97,78)"/>
<path d="M0 0 C3.09024494 1.54512247 3.81139218 4.54675786 5.16015625 7.578125 C5.61895424 8.58987038 5.61895424 8.58987038 6.08702087 9.62205505 C7.08528088 11.82853001 8.07401316 14.0391316 9.0625 16.25 C9.74637358 17.76685036 10.4306196 19.28353286 11.11523438 20.80004883 C15.17244841 29.80933872 19.17158852 38.84322621 22.94555664 47.97558594 C25.16557585 53.28683758 27.68480419 58.40911411 30.28341675 63.5453186 C33.43071776 69.79569845 36.29138151 76.16436758 39.125 82.5625 C39.95882443 84.43917391 40.79342371 86.31550166 41.62818909 88.1917572 C42.20265022 89.48298261 42.77673539 90.77437534 43.35044861 92.06593323 C45.44991219 96.7857069 47.58441551 101.48875775 49.73046875 106.1875 C50.63295909 108.17127905 51.53474405 110.15537693 52.43621826 112.13961792 C53.01719374 113.41449024 53.60070445 114.68821046 54.18682861 115.96072388 C55.00242384 117.73243028 55.80808141 119.50870125 56.61328125 121.28515625 C57.07516846 122.29457275 57.53705566 123.30398926 58.01293945 124.34399414 C59 127 59 127 59 131 C56.73020335 131.10794277 54.45894804 131.18556176 52.1875 131.25 C50.92292969 131.29640625 49.65835938 131.3428125 48.35546875 131.390625 C45 131 45 131 43.50317383 129.44165039 C41.55175963 126.27190971 40.06580579 122.95217186 38.59375 119.54296875 C38.27279861 118.81214081 37.95184723 118.08131287 37.62117004 117.32833862 C36.93384526 115.76293149 36.24863137 114.19659613 35.56533813 112.62942505 C33.76834651 108.51043342 31.95371338 104.39926246 30.13671875 100.2890625 C29.77772995 99.47681717 29.41874115 98.66457184 29.0488739 97.82771301 C26.2500688 91.51665198 23.33323281 85.27061099 20.3125 79.0625 C13.88768809 65.8535494 7.95450768 52.4258238 2 39 C-5.4850345 57.33624373 -12.50186343 75.8527532 -19 94.5625 C-21.61524239 102.07145938 -24.4199672 109.50715213 -27.25 116.9375 C-27.68699219 118.09515869 -28.12398438 119.25281738 -28.57421875 120.44555664 C-28.98800781 121.52442139 -29.40179688 122.60328613 -29.828125 123.71484375 C-30.1984082 124.68542725 -30.56869141 125.65601074 -30.95019531 126.65600586 C-32 129 -32 129 -34 131 C-37.0390625 131.1953125 -37.0390625 131.1953125 -40.625 131.125 C-41.81351562 131.10695312 -43.00203125 131.08890625 -44.2265625 131.0703125 C-45.14179688 131.04710937 -46.05703125 131.02390625 -47 131 C-48.15298283 127.5410515 -47.86087496 126.96820284 -46.55859375 123.7109375 C-46.22529053 122.86055908 -45.8919873 122.01018066 -45.54858398 121.1340332 C-45.18192627 120.22355225 -44.81526855 119.31307129 -44.4375 118.375 C-43.68574438 116.46032379 -42.93576476 114.5449494 -42.1875 112.62890625 C-41.81367188 111.67516113 -41.43984375 110.72141602 -41.0546875 109.73876953 C-39.59870215 105.95792611 -38.25800527 102.1423298 -36.9375 98.3125 C-34.67744807 91.79701425 -32.21824437 85.37818579 -29.68432617 78.96484375 C-27.0749637 72.30840982 -24.7049646 65.57748205 -22.39672852 58.8112793 C-20.78322329 54.10935281 -18.96821994 49.56814972 -17 45 C-16.01863516 42.34826331 -15.10402574 39.67472709 -14.1875 37 C-11.79541081 30.11907991 -9.19837205 23.35394095 -6.45703125 16.60546875 C-4.23148458 11.09828489 -2.11532682 5.55039295 0 0 Z " fill="#E2B717" transform="translate(362,117)"/>
<path d="M0 0 C41.91 0 83.82 0 127 0 C127 4.95 127 9.9 127 15 C108.19 15 89.38 15 70 15 C70.01160156 23.28996094 70.02320313 31.57992187 70.03515625 40.12109375 C70.04091167 46.02280557 70.04603859 51.9245153 70.05025387 57.82622814 C70.05580559 65.48124495 70.0628651 73.13625092 70.07543945 80.79125977 C70.08644694 87.49557209 70.09227621 94.19987025 70.09487724 100.90419197 C70.09673202 103.46837613 70.10035364 106.03255962 70.10573006 108.59673882 C70.11293659 112.17445158 70.11399111 115.75211519 70.11352539 119.32983398 C70.11712067 120.40157364 70.12071594 121.47331329 70.12442017 122.57752991 C70.1230455 123.54653229 70.12167084 124.51553467 70.12025452 125.51390076 C70.12117631 126.36102851 70.1220981 127.20815626 70.12304783 128.08095455 C70 130 70 130 69 131 C64.71 131 60.42 131 56 131 C55.67 92.72 55.34 54.44 55 15 C38.5 15 22 15 5 15 C0 4 0 4 0 0 Z " fill="#E3B817" transform="translate(387,117)"/>
<path d="M0 0 C8.38160873 9.01022939 7.65298757 18.91776323 7.6328125 30.68359375 C7.63376923 31.91288101 7.63472595 33.14216827 7.63571167 34.40870667 C7.63638957 36.99309338 7.6345626 39.57748183 7.63037109 42.16186523 C7.62677328 44.81656208 7.62583443 47.47105764 7.63037109 50.12573242 C7.63651598 53.95754048 7.63581105 57.78928308 7.6328125 61.62109375 C7.63483673 62.81576767 7.63686096 64.01044159 7.63894653 65.24131775 C7.63421829 66.88421532 7.63421829 66.88421532 7.62939453 68.56030273 C7.62859894 69.52878647 7.62780334 70.4972702 7.62698364 71.49510193 C7.5 73.6875 7.5 73.6875 6.5 74.6875 C4.48035801 74.75994053 2.45832876 74.77127188 0.4375 74.75 C-0.66722656 74.74097656 -1.77195312 74.73195313 -2.91015625 74.72265625 C-3.76480469 74.71105469 -4.61945312 74.69945312 -5.5 74.6875 C-6.49 71.7175 -7.48 68.7475 -8.5 65.6875 C-9.69625 66.615625 -10.8925 67.54375 -12.125 68.5 C-18.91478045 73.53298411 -24.13536483 75.24451309 -32.5 75.6875 C-33.18320312 75.75195312 -33.86640625 75.81640625 -34.5703125 75.8828125 C-41.26195051 76.28918728 -47.46280568 74.21569859 -52.62109375 69.921875 C-56.73016493 65.58214909 -58.88109817 61.62895756 -59.5 55.6875 C-59.58121094 54.965625 -59.66242187 54.24375 -59.74609375 53.5 C-60.16678935 46.15694952 -57.78365968 40.38104732 -53.0625 34.8125 C-43.31583069 26.72989618 -31.34735958 25.4963109 -19.0625 25.625 C-18.23556641 25.62951172 -17.40863281 25.63402344 -16.55664062 25.63867188 C-14.53772854 25.65034189 -12.51885426 25.66827282 -10.5 25.6875 C-10.72934409 23.76825213 -10.98434343 21.8520594 -11.25 19.9375 C-11.38921875 18.87015625 -11.5284375 17.8028125 -11.671875 16.703125 C-12.62431345 13.23481141 -13.70722217 11.90103502 -16.5 9.6875 C-25.29960393 6.75429869 -33.05080921 9.55713022 -41.375 12.59375 C-44.5 13.6875 -44.5 13.6875 -46.5 13.6875 C-47.34069415 12.08717863 -48.17231505 10.48208829 -49 8.875 C-49.4640625 7.98167969 -49.928125 7.08835938 -50.40625 6.16796875 C-51.5 3.6875 -51.5 3.6875 -51.5 0.6875 C-35.46613351 -6.42057618 -15.52055625 -11.68879797 0 0 Z M-39.5 44.6875 C-40.67635297 47.04020593 -40.63359359 48.508252 -40.625 51.125 C-40.62757813 51.90746094 -40.63015625 52.68992187 -40.6328125 53.49609375 C-40.58382548 55.86645347 -40.58382548 55.86645347 -39.5 58.6875 C-34.43952412 62.19090638 -29.44240041 62.51283339 -23.5 61.6875 C-18.19724277 59.99860814 -14.49048268 57.47227229 -11.5 52.6875 C-10.41723323 49.41070582 -10.39661202 46.37209056 -10.4375 42.9375 C-10.44652344 41.95265625 -10.45554687 40.9678125 -10.46484375 39.953125 C-10.47644531 39.20546875 -10.48804688 38.4578125 -10.5 37.6875 C-26.30744729 36.96699994 -26.30744729 36.96699994 -39.5 44.6875 Z " fill="#E5B917" transform="translate(604.5,173.3125)"/>
<path d="M0 0 C5.94 0 11.88 0 18 0 C18.02255146 10.15266547 18.04091534 20.30531443 18.05181217 30.45799923 C18.05704089 35.17179733 18.06413834 39.88557747 18.07543945 44.59936523 C18.08626873 49.14455404 18.09227692 53.68972552 18.09487724 58.23492622 C18.09673142 59.97294958 18.10035189 61.71097194 18.10573006 63.44898796 C18.11294103 65.87478595 18.11399092 68.30051146 18.11352539 70.72631836 C18.11712067 71.45208069 18.12071594 72.17784302 18.12442017 72.92559814 C18.11405216 77.88594784 18.11405216 77.88594784 17 79 C14.3226862 79.09981214 11.67695825 79.13879875 9 79.125 C7.87464844 79.13080078 7.87464844 79.13080078 6.7265625 79.13671875 C1.12661053 79.12661053 1.12661053 79.12661053 0 78 C-0.09498646 75.56603981 -0.12558417 73.16057048 -0.11352539 70.72631836 C-0.11367142 69.96539383 -0.11381744 69.2044693 -0.1139679 68.42048645 C-0.11326862 65.89357702 -0.10547555 63.36674038 -0.09765625 60.83984375 C-0.09579212 59.0924941 -0.0943682 57.34514393 -0.09336853 55.59779358 C-0.08954293 50.98968066 -0.07971229 46.38159905 -0.06866455 41.77349854 C-0.05845134 37.07491479 -0.0538711 32.37632601 -0.04882812 27.67773438 C-0.03809005 18.45180692 -0.02049292 9.22591096 0 0 Z " fill="#E2B817" transform="translate(633,169)"/>
<path d="M0 0 C2.5625 2.1875 2.5625 2.1875 3.5625 5.1875 C3.90797151 10.54230837 4.02612011 13.8259043 0.5625 18.1875 C-3.67717017 21.01394678 -7.45836859 20.84661947 -12.4375 20.1875 C-15.99430172 18.08245409 -17.13218936 17.10343192 -18.4375 13.1875 C-18.77972737 7.88297577 -18.95826609 4.46271597 -15.4375 0.1875 C-10.73528628 -3.46977734 -4.88685019 -2.57670283 0 0 Z " fill="#DDB316" transform="translate(527.4375,228.8125)"/>
<path d="M0 0 C0.89214652 2.67643957 1.13540211 4.25384378 1.125 7 C1.12886719 8.0209375 1.12886719 8.0209375 1.1328125 9.0625 C1 11 1 11 0 14 C-3.41398105 16.33149925 -6.04850852 17.26514324 -10.125 16.9375 C-14.1529843 15.96298767 -15.54293015 15.24333221 -18 12 C-19.74022336 8.51955327 -18.88180814 4.69681106 -18 1 C-13.12245673 -4.38211672 -5.76096126 -3.84064084 0 0 Z " fill="#DAB016" transform="translate(651,142)"/>
<path d="M0 0 C1.125 3.75 1.125 3.75 0 6 C4.29 6 8.58 6 13 6 C12.67 6.66 12.34 7.32 12 8 C7.71 8 3.42 8 -1 8 C-2.2077558 4.37673261 -1.54311128 3.35853631 0 0 Z " fill="#5B4A09" transform="translate(316,240)"/>
<path d="M0 0 C0.66 0.33 1.32 0.66 2 1 C-2.28565853 6.09057916 -6.19579645 10.66258296 -12 14 C-10.41332422 10.09714233 -7.86649519 7.66479018 -4.875 4.75 C-3.96492187 3.85796875 -3.05484375 2.9659375 -2.1171875 2.046875 C-1.41851562 1.37140625 -0.71984375 0.6959375 0 0 Z " fill="#997C0F" transform="translate(242,160)"/>
<path d="M0 0 C-0.99 2.97 -1.98 5.94 -3 9 C-6 5.375 -6 5.375 -6 2 C-2.25 0 -2.25 0 0 0 Z " fill="#92780E" transform="translate(559,172)"/>
<path d="M0 0 C0.33 0.66 0.66 1.32 1 2 C-0.73397418 5.65047197 -2.19333016 7.55609075 -6 9 C-4.47291037 5.56404834 -2.40072955 2.88087546 0 0 Z " fill="#6F5A0B" transform="translate(204,207)"/>
<path d="M0 0 C0.66 0.66 1.32 1.32 2 2 C1.01 4.31 0.02 6.62 -1 9 C-2.125 5.25 -2.125 5.25 -1 3 C-1.99 2.67 -2.98 2.34 -4 2 C-2.68 1.34 -1.36 0.68 0 0 Z " fill="#514208" transform="translate(340,117)"/>
</svg>
